# xmcd
#
# Track frame offsets:
#	150
#	14244
#	26909
#	40850
#	55123
#	69828
#	84078
#	97805
#
# Disc length: 1495 seconds
#
# Revision: 0
# Processed by: cddbd v1.5.2PL0 Copyright (c) Steve Scherf et al.
# Submitted via: audiograbber 1.83.01
#
DISCID=5905d508
DTITLE=Πανος Γαβαλας - Οι επιτυχίες του Πάνου Γαβαλά
DYEAR=1900
DGENRE=
TTITLE0=Ετσι είναι πάντα μ'ένα αντιο
TTITLE1=Δεν μ'άγαπάς
TTITLE2=Συγχαρητήρια
TTITLE3=Ανοιξε άνοιξε
TTITLE4=Πήρε φωτιά μιά καρδιά
TTITLE5=Μου σπάσανε τον μπαγλαμά
TTITLE6=Γλυκέ μου τύρρανε
TTITLE7=Τι σού λέει η μάνα σου γιά μένα
EXTD=
EXTT0=
EXTT1=
EXTT2=
EXTT3=
EXTT4=
EXTT5=
EXTT6=
EXTT7=
PLAYORDER=
